# xmcd CD database file
#
# Track frame offsets:
#	150
#	18979
#	32984
#	59312
#	80351
#	100326
#	115577
#	146127
#	165287
#	185303
#	207702
#	227043
#	254605
#	278702
#	297940
#
# Disc length: 4238 seconds
#
# Revision: 0
# Processed by: cddbd v1.5.1PL0 Copyright (c) Steve Scherf et al.
# Submitted via: CDex 1.51
#
DISCID=d5108c0f
DTITLE=Brian Cotton and the Cotton Club Jazzmen - Back In The South
DYEAR=1997
DGENRE=Jazz
TTITLE0=Five Point Blues
TTITLE1=Swing That Music
TTITLE2=Sweeping The Blues Away
TTITLE3=Jubilee
TTITLE4=Nobody Knows Or Seems To Care
TTITLE5=Shimmy Sha Wobble
TTITLE6=Here's Freddie
TTITLE7=I Never Knew
TTITLE8=Deed I Do
TTITLE9=Stumbling
TTITLE10=Spain
TTITLE11=Bye Bye Blues
TTITLE12=I Would Do Most Anything
TTITLE13=There'll Come ATime, Wait And See
TTITLE14=Loose Walk
EXTD=YEAR: 1997
EXTT0=
EXTT1=
EXTT2=
EXTT3=
EXTT4=
EXTT5=
EXTT6=
EXTT7=
EXTT8=
EXTT9=
EXTT10=
EXTT11=
EXTT12=
EXTT13=
EXTT14=
PLAYORDER=
